<?xml version="1.0" encoding="UTF-8"?>
<svg xmlns="http://www.w3.org/2000/svg"
     xmlns:xlink="http://www.w3.org/1999/xlink"
     xmlns:gadfly="http://www.gadflyjl.org/ns"
     version="1.2"
     width="101.6mm" height="101.6mm" viewBox="0 0 101.6 101.6"
     stroke="none"
     fill="#000000"
     stroke-width="0.3"
     font-size="3.88"
>
<g class="plotroot xscalable yscalable" id="fig-72712f3e5b9946a9adc4a66b1c170adc-element-1">
  <g font-size="3.88" font-family="'PT Sans','Helvetica Neue','Helvetica',sans-serif" fill="#564A55" stroke="#000000" stroke-opacity="0.000" id="fig-72712f3e5b9946a9adc4a66b1c170adc-element-2">
    <text x="57.62" y="89.99" text-anchor="middle" dy="0.6em">False Positive</text>
  </g>
  <g class="guide xlabels" font-size="2.82" font-family="'PT Sans Caption','Helvetica Neue','Helvetica',sans-serif" fill="#6C606B" id="fig-72712f3e5b9946a9adc4a66b1c170adc-element-3">
    <text x="20.63" y="83.32" text-anchor="middle" dy="0.6em">0.0</text>
    <text x="57.62" y="83.32" text-anchor="middle" dy="0.6em">0.5</text>
    <text x="94.6" y="83.32" text-anchor="middle" dy="0.6em">1.0</text>
  </g>
  <g clip-path="url(#fig-72712f3e5b9946a9adc4a66b1c170adc-element-5)" id="fig-72712f3e5b9946a9adc4a66b1c170adc-element-4">
    <g pointer-events="visible" opacity="1" fill="#000000" fill-opacity="0.000" stroke="#000000" stroke-opacity="0.000" class="guide background" id="fig-72712f3e5b9946a9adc4a66b1c170adc-element-6">
      <rect x="18.63" y="5" width="77.97" height="77.32"/>
    </g>
    <g class="guide ygridlines xfixed" stroke-dasharray="0.5,0.5" stroke-width="0.2" stroke="#D0D0E0" id="fig-72712f3e5b9946a9adc4a66b1c170adc-element-7">
      <path fill="none" d="M18.63,80.31 L 96.6 80.31"/>
      <path fill="none" d="M18.63,43.66 L 96.6 43.66"/>
      <path fill="none" d="M18.63,7 L 96.6 7"/>
    </g>
    <g class="guide xgridlines yfixed" stroke-dasharray="0.5,0.5" stroke-width="0.2" stroke="#D0D0E0" id="fig-72712f3e5b9946a9adc4a66b1c170adc-element-8">
      <path fill="none" d="M20.63,5 L 20.63 82.32"/>
      <path fill="none" d="M57.62,5 L 57.62 82.32"/>
      <path fill="none" d="M94.6,5 L 94.6 82.32"/>
    </g>
    <g class="plotpanel" id="fig-72712f3e5b9946a9adc4a66b1c170adc-element-9">
      <g stroke-width="0.3" fill="#000000" fill-opacity="0.000" class="geometry" stroke="#00BFFF" id="fig-72712f3e5b9946a9adc4a66b1c170adc-element-10">
        <path fill="none" d="M20.63,80.31 L 20.63 71.15 20.63 61.99 22.87 61.99 25.11 61.99 25.11 52.82 25.11 43.66 27.36 43.66 27.36 34.49 29.6 34.49 31.84 34.49 34.08 34.49 36.32 34.49 38.56 34.49 40.8 34.49 43.05 34.49 45.29 34.49 47.53 34.49 49.77 34.49 52.01 34.49 52.01 25.33 54.25 25.33 56.5 25.33 58.74 25.33 60.98 25.33 63.22 25.33 65.46 25.33 65.46 16.16 65.46 7 67.7 7 69.94 7 72.19 7 74.43 7 76.67 7 78.91 7 81.15 7 83.39 7 85.63 7 87.88 7 90.12 7 92.36 7 94.6 7"/>
      </g>
    </g>
  </g>
  <g class="guide ylabels" font-size="2.82" font-family="'PT Sans Caption','Helvetica Neue','Helvetica',sans-serif" fill="#6C606B" id="fig-72712f3e5b9946a9adc4a66b1c170adc-element-11">
    <text x="17.63" y="80.31" text-anchor="end" dy="0.35em">0.0</text>
    <text x="17.63" y="43.66" text-anchor="end" dy="0.35em">0.5</text>
    <text x="17.63" y="7" text-anchor="end" dy="0.35em">1.0</text>
  </g>
  <g font-size="3.88" font-family="'PT Sans','Helvetica Neue','Helvetica',sans-serif" fill="#564A55" stroke="#000000" stroke-opacity="0.000" id="fig-72712f3e5b9946a9adc4a66b1c170adc-element-12">
    <text x="8.81" y="41.66" text-anchor="middle" dy="0.35em" transform="rotate(-90, 8.81, 43.66)">True Positive</text>
  </g>
</g>
<defs>
<clipPath id="fig-72712f3e5b9946a9adc4a66b1c170adc-element-5">
  <path d="M18.63,5 L 96.6 5 96.6 82.32 18.63 82.32" />
</clipPath
></defs>
</svg>
