<?xml version="1.0" encoding="UTF-8"?>
<svg xmlns="http://www.w3.org/2000/svg"
     xmlns:xlink="http://www.w3.org/1999/xlink"
     xmlns:gadfly="http://www.gadflyjl.org/ns"
     version="1.2"
     width="152.4mm" height="101.6mm" viewBox="0 0 152.4 101.6"
     stroke="none"
     fill="#000000"
     stroke-width="0.3"
     font-size="3.88"
>
<g class="plotroot xscalable yscalable" id="fig-8d3b6af6847647f2bdde22f533cc713a-element-1">
  <g font-size="3.88" font-family="'PT Sans','Helvetica Neue','Helvetica',sans-serif" fill="#564A55" stroke="#000000" stroke-opacity="0.000" id="fig-8d3b6af6847647f2bdde22f533cc713a-element-2">
    <text x="73.36" y="89.99" text-anchor="middle" dy="0.6em">λ</text>
  </g>
  <g class="guide colorkey" id="fig-8d3b6af6847647f2bdde22f533cc713a-element-3">
    <g fill="#4C404B" font-size="2.82" font-family="'PT Sans','Helvetica Neue','Helvetica',sans-serif" id="fig-8d3b6af6847647f2bdde22f533cc713a-element-4">
      <text x="137.93" y="42.37" dy="0.35em" id="fig-8d3b6af6847647f2bdde22f533cc713a-element-5" class="color_1">1</text>
      <text x="137.93" y="45.99" dy="0.35em" id="fig-8d3b6af6847647f2bdde22f533cc713a-element-6" class="color_2">2</text>
      <text x="137.93" y="49.62" dy="0.35em" id="fig-8d3b6af6847647f2bdde22f533cc713a-element-7" class="color_3">3</text>
      <text x="137.93" y="53.25" dy="0.35em" id="fig-8d3b6af6847647f2bdde22f533cc713a-element-8" class="color_4">4</text>
    </g>
    <g stroke="#000000" stroke-opacity="0.000" id="fig-8d3b6af6847647f2bdde22f533cc713a-element-9">
      <rect x="135.12" y="41.46" width="1.81" height="1.81" id="fig-8d3b6af6847647f2bdde22f533cc713a-element-10" class="color_1" fill="#00BFFF"/>
      <rect x="135.12" y="45.09" width="1.81" height="1.81" id="fig-8d3b6af6847647f2bdde22f533cc713a-element-11" class="color_2" fill="#D4CA3A"/>
      <rect x="135.12" y="48.71" width="1.81" height="1.81" id="fig-8d3b6af6847647f2bdde22f533cc713a-element-12" class="color_3" fill="#FF5EA0"/>
      <rect x="135.12" y="52.34" width="1.81" height="1.81" id="fig-8d3b6af6847647f2bdde22f533cc713a-element-13" class="color_4" fill="#00E5B2"/>
    </g>
    <g fill="#362A35" font-size="3.88" font-family="'PT Sans','Helvetica Neue','Helvetica',sans-serif" stroke="#000000" stroke-opacity="0.000" id="fig-8d3b6af6847647f2bdde22f533cc713a-element-14">
      <text x="135.12" y="38.55" id="fig-8d3b6af6847647f2bdde22f533cc713a-element-15">variable</text>
    </g>
  </g>
  <g clip-path="url(#fig-8d3b6af6847647f2bdde22f533cc713a-element-17)" id="fig-8d3b6af6847647f2bdde22f533cc713a-element-16">
    <g class="plotpanel" id="fig-8d3b6af6847647f2bdde22f533cc713a-element-18">
      <g font-size="3.88" font-family="'PT Sans','Helvetica Neue','Helvetica',sans-serif" fill="#564A55" stroke="#000000" stroke-opacity="0.000" id="fig-8d3b6af6847647f2bdde22f533cc713a-element-19">
        <text x="115.04" y="81.87" text-anchor="end" dy="0.35em" transform="rotate(-90, 115.04, 81.87)" id="fig-8d3b6af6847647f2bdde22f533cc713a-element-20">3</text>
      </g>
      <g font-size="3.88" font-family="'PT Sans','Helvetica Neue','Helvetica',sans-serif" fill="#564A55" stroke="#000000" stroke-opacity="0.000" id="fig-8d3b6af6847647f2bdde22f533cc713a-element-21">
        <text x="76.87" y="81.87" text-anchor="end" dy="0.35em" transform="rotate(-90, 76.87, 81.87)" id="fig-8d3b6af6847647f2bdde22f533cc713a-element-22">2</text>
      </g>
      <g font-size="3.88" font-family="'PT Sans','Helvetica Neue','Helvetica',sans-serif" fill="#564A55" stroke="#000000" stroke-opacity="0.000" id="fig-8d3b6af6847647f2bdde22f533cc713a-element-23">
        <text x="37.71" y="81.87" text-anchor="end" dy="0.35em" transform="rotate(-90, 37.71, 81.87)" id="fig-8d3b6af6847647f2bdde22f533cc713a-element-24">1</text>
      </g>
      <g class="guide xlabels" font-size="2.82" font-family="'PT Sans Caption','Helvetica Neue','Helvetica',sans-serif" fill="#6C606B" id="fig-8d3b6af6847647f2bdde22f533cc713a-element-25">
        <text x="99.96" y="73.86" text-anchor="middle" dy="0.6em" id="fig-8d3b6af6847647f2bdde22f533cc713a-element-26">10<tspan style="dominant-baseline:inherit" dy="-0.6em" font-size="83%">-5</tspan><tspan dy="0.498000em"></tspan></text>
        <text x="105.99" y="73.86" text-anchor="middle" dy="0.6em" id="fig-8d3b6af6847647f2bdde22f533cc713a-element-27">10<tspan style="dominant-baseline:inherit" dy="-0.6em" font-size="83%">-4</tspan><tspan dy="0.498000em"></tspan></text>
        <text x="112.02" y="73.86" text-anchor="middle" dy="0.6em" id="fig-8d3b6af6847647f2bdde22f533cc713a-element-28">10<tspan style="dominant-baseline:inherit" dy="-0.6em" font-size="83%">-3</tspan><tspan dy="0.498000em"></tspan></text>
        <text x="118.05" y="73.86" text-anchor="middle" dy="0.6em" id="fig-8d3b6af6847647f2bdde22f533cc713a-element-29">10<tspan style="dominant-baseline:inherit" dy="-0.6em" font-size="83%">-2</tspan><tspan dy="0.498000em"></tspan></text>
        <text x="124.09" y="73.86" text-anchor="middle" dy="0.6em" id="fig-8d3b6af6847647f2bdde22f533cc713a-element-30">10<tspan style="dominant-baseline:inherit" dy="-0.6em" font-size="83%">-1</tspan><tspan dy="0.498000em"></tspan></text>
        <text x="130.12" y="73.86" text-anchor="middle" dy="0.6em" id="fig-8d3b6af6847647f2bdde22f533cc713a-element-31">10<tspan style="dominant-baseline:inherit" dy="-0.6em" font-size="83%">0</tspan><tspan dy="0.498000em"></tspan></text>
      </g>
      <g class="guide xlabels" font-size="2.82" font-family="'PT Sans Caption','Helvetica Neue','Helvetica',sans-serif" fill="#6C606B" id="fig-8d3b6af6847647f2bdde22f533cc713a-element-32">
        <text x="61.79" y="73.86" text-anchor="middle" dy="0.6em" id="fig-8d3b6af6847647f2bdde22f533cc713a-element-33">10<tspan style="dominant-baseline:inherit" dy="-0.6em" font-size="83%">-5</tspan><tspan dy="0.498000em"></tspan></text>
        <text x="67.83" y="73.86" text-anchor="middle" dy="0.6em" id="fig-8d3b6af6847647f2bdde22f533cc713a-element-34">10<tspan style="dominant-baseline:inherit" dy="-0.6em" font-size="83%">-4</tspan><tspan dy="0.498000em"></tspan></text>
        <text x="73.86" y="73.86" text-anchor="middle" dy="0.6em" id="fig-8d3b6af6847647f2bdde22f533cc713a-element-35">10<tspan style="dominant-baseline:inherit" dy="-0.6em" font-size="83%">-3</tspan><tspan dy="0.498000em"></tspan></text>
        <text x="79.89" y="73.86" text-anchor="middle" dy="0.6em" id="fig-8d3b6af6847647f2bdde22f533cc713a-element-36">10<tspan style="dominant-baseline:inherit" dy="-0.6em" font-size="83%">-2</tspan><tspan dy="0.498000em"></tspan></text>
        <text x="85.92" y="73.86" text-anchor="middle" dy="0.6em" id="fig-8d3b6af6847647f2bdde22f533cc713a-element-37">10<tspan style="dominant-baseline:inherit" dy="-0.6em" font-size="83%">-1</tspan><tspan dy="0.498000em"></tspan></text>
        <text x="91.96" y="73.86" text-anchor="middle" dy="0.6em" id="fig-8d3b6af6847647f2bdde22f533cc713a-element-38">10<tspan style="dominant-baseline:inherit" dy="-0.6em" font-size="83%">0</tspan><tspan dy="0.498000em"></tspan></text>
      </g>
      <g class="guide xlabels" font-size="2.82" font-family="'PT Sans Caption','Helvetica Neue','Helvetica',sans-serif" fill="#6C606B" id="fig-8d3b6af6847647f2bdde22f533cc713a-element-39">
        <text x="21.63" y="73.86" text-anchor="middle" dy="0.6em" id="fig-8d3b6af6847647f2bdde22f533cc713a-element-40">10<tspan style="dominant-baseline:inherit" dy="-0.6em" font-size="83%">-5</tspan><tspan dy="0.498000em"></tspan></text>
        <text x="28.06" y="73.86" text-anchor="middle" dy="0.6em" id="fig-8d3b6af6847647f2bdde22f533cc713a-element-41">10<tspan style="dominant-baseline:inherit" dy="-0.6em" font-size="83%">-4</tspan><tspan dy="0.498000em"></tspan></text>
        <text x="34.5" y="73.86" text-anchor="middle" dy="0.6em" id="fig-8d3b6af6847647f2bdde22f533cc713a-element-42">10<tspan style="dominant-baseline:inherit" dy="-0.6em" font-size="83%">-3</tspan><tspan dy="0.498000em"></tspan></text>
        <text x="40.93" y="73.86" text-anchor="middle" dy="0.6em" id="fig-8d3b6af6847647f2bdde22f533cc713a-element-43">10<tspan style="dominant-baseline:inherit" dy="-0.6em" font-size="83%">-2</tspan><tspan dy="0.498000em"></tspan></text>
        <text x="47.36" y="73.86" text-anchor="middle" dy="0.6em" id="fig-8d3b6af6847647f2bdde22f533cc713a-element-44">10<tspan style="dominant-baseline:inherit" dy="-0.6em" font-size="83%">-1</tspan><tspan dy="0.498000em"></tspan></text>
        <text x="53.79" y="73.86" text-anchor="middle" dy="0.6em" id="fig-8d3b6af6847647f2bdde22f533cc713a-element-45">10<tspan style="dominant-baseline:inherit" dy="-0.6em" font-size="83%">0</tspan><tspan dy="0.498000em"></tspan></text>
      </g>
      <g clip-path="url(#fig-8d3b6af6847647f2bdde22f533cc713a-element-47)" id="fig-8d3b6af6847647f2bdde22f533cc713a-element-46">
        <g pointer-events="visible" opacity="1" fill="#000000" fill-opacity="0.000" stroke="#000000" stroke-opacity="0.000" class="guide background" id="fig-8d3b6af6847647f2bdde22f533cc713a-element-48">
          <rect x="97.96" y="7" width="34.16" height="65.86" id="fig-8d3b6af6847647f2bdde22f533cc713a-element-49"/>
        </g>
        <g class="guide ygridlines xfixed" stroke-dasharray="0.5,0.5" stroke-width="0.2" stroke="#D0D0E0" id="fig-8d3b6af6847647f2bdde22f533cc713a-element-50">
          <path fill="none" d="M97.96,70.86 L 132.12 70.86" id="fig-8d3b6af6847647f2bdde22f533cc713a-element-51"/>
          <path fill="none" d="M97.96,50.24 L 132.12 50.24" id="fig-8d3b6af6847647f2bdde22f533cc713a-element-52"/>
          <path fill="none" d="M97.96,29.62 L 132.12 29.62" id="fig-8d3b6af6847647f2bdde22f533cc713a-element-53"/>
          <path fill="none" d="M97.96,9 L 132.12 9" id="fig-8d3b6af6847647f2bdde22f533cc713a-element-54"/>
        </g>
        <g class="guide xgridlines yfixed" stroke-dasharray="0.5,0.5" stroke-width="0.2" stroke="#D0D0E0" id="fig-8d3b6af6847647f2bdde22f533cc713a-element-55">
          <path fill="none" d="M99.96,7 L 99.96 72.86" id="fig-8d3b6af6847647f2bdde22f533cc713a-element-56"/>
          <path fill="none" d="M105.99,7 L 105.99 72.86" id="fig-8d3b6af6847647f2bdde22f533cc713a-element-57"/>
          <path fill="none" d="M112.02,7 L 112.02 72.86" id="fig-8d3b6af6847647f2bdde22f533cc713a-element-58"/>
          <path fill="none" d="M118.05,7 L 118.05 72.86" id="fig-8d3b6af6847647f2bdde22f533cc713a-element-59"/>
          <path fill="none" d="M124.09,7 L 124.09 72.86" id="fig-8d3b6af6847647f2bdde22f533cc713a-element-60"/>
          <path fill="none" d="M130.12,7 L 130.12 72.86" id="fig-8d3b6af6847647f2bdde22f533cc713a-element-61"/>
        </g>
        <g class="plotpanel" id="fig-8d3b6af6847647f2bdde22f533cc713a-element-62">
          <g stroke-width="0.3" fill="#000000" fill-opacity="0.000" id="fig-8d3b6af6847647f2bdde22f533cc713a-element-63">
            <path fill="none" d="M103.8,54.16 L 104.05 53.92 104.29 53.68 104.54 53.44 104.78 53.2 105.02 52.96 105.27 52.73 105.51 52.5 105.75 52.27 106 52.05 106.24 51.83 106.49 51.62 106.73 51.42 106.97 51.22 107.22 51.03 107.46 50.85 107.7 50.68 107.95 50.53 108.19 50.39 108.44 50.26 108.68 50.24 108.92 50.24 109.17 50.24 109.41 50.24 109.65 50.24 109.9 50.24 110.14 50.24 110.39 50.24 110.63 50.24 110.87 50.24 111.12 50.24 111.36 50.24 111.6 50.24 111.85 50.24 112.09 50.24 112.34 50.24 112.58 50.24 112.82 50.24 113.07 50.24 113.31 50.24 113.55 50.24 113.8 50.24 114.04 50.24 114.28 50.24 114.53 50.24 114.77 50.24 115.02 50.24 115.26 50.24 115.5 50.24 115.75 50.24 115.99 50.24 116.23 50.24 116.48 50.24 116.72 50.24 116.97 50.24 117.21 50.24 117.45 50.24 117.7 50.24 117.94 50.24 118.18 50.24 118.43 50.24 118.67 50.24 118.92 50.24 119.16 50.24 119.4 50.24 119.65 50.24 119.89 50.24 120.13 50.24 120.38 50.24 120.62 50.24 120.87 50.24 121.11 50.24 121.35 50.24 121.6 50.24 121.84 50.24 122.08 50.24 122.33 50.24 122.57 50.24 122.82 50.24 123.06 50.24 123.3 50.24 123.55 50.24 123.79 50.24 124.03 50.24 124.28 50.24 124.52 50.24 124.77 50.24 125.01 50.24 125.25 50.24 125.5 50.24 125.74 50.24 125.98 50.24 126.23 50.24 126.47 50.24 126.72 50.24 126.96 50.24 127.2 50.24 127.45 50.24 127.69 50.24 127.93 50.24" id="fig-8d3b6af6847647f2bdde22f533cc713a-element-64" class="geometry color_1" stroke="#00BFFF"/>
            <path fill="none" d="M103.8,25.12 L 104.05 26.36 104.29 27.6 104.54 28.85 104.78 30.1 105.02 31.35 105.27 32.59 105.51 33.81 105.75 35.01 106 36.19 106.24 37.33 106.49 38.43 106.73 39.48 106.97 40.48 107.22 41.41 107.46 42.24 107.7 42.96 107.95 43.56 108.19 44.06 108.44 44.45 108.68 44.8 108.92 45.1 109.17 45.35 109.41 45.57 109.65 45.77 109.9 45.95 110.14 46.1 110.39 46.24 110.63 46.37 110.87 46.5 111.12 46.61 111.36 46.71 111.6 46.81 111.85 46.91 112.09 47 112.34 47.08 112.58 47.16 112.82 47.24 113.07 47.31 113.31 47.38 113.55 47.45 113.8 47.51 114.04 47.57 114.28 47.62 114.53 47.67 114.77 47.72 115.02 47.76 115.26 47.81 115.5 47.84 115.75 47.88 115.99 47.91 116.23 47.94 116.48 47.97 116.72 48 116.97 48.02 117.21 48.04 117.45 48.06 117.7 48.08 117.94 48.1 118.18 48.11 118.43 48.12 118.67 48.16 118.92 48.2 119.16 48.24 119.4 48.28 119.65 48.32 119.89 48.36 120.13 48.41 120.38 48.45 120.62 48.51 120.87 48.58 121.11 48.65 121.35 48.71 121.6 48.81 121.84 48.93 122.08 49.03 122.33 49.13 122.57 49.22 122.82 49.29 123.06 49.36 123.3 49.42 123.55 49.48 123.79 49.54 124.03 49.6 124.28 49.65 124.52 49.7 124.77 49.75 125.01 49.79 125.25 49.84 125.5 49.89 125.74 49.94 125.98 49.99 126.23 50.03 126.47 50.07 126.72 50.11 126.96 50.16 127.2 50.2 127.45 50.24 127.69 50.24 127.93 50.24" id="fig-8d3b6af6847647f2bdde22f533cc713a-element-65" class="geometry color_4" stroke="#00E5B2"/>
            <path fill="none" d="M103.8,60.97 L 104.05 60.45 104.29 59.93 104.54 59.41 104.78 58.89 105.02 58.37 105.27 57.85 105.51 57.34 105.75 56.84 106 56.34 106.24 55.87 106.49 55.4 106.73 54.96 106.97 54.53 107.22 54.14 107.46 53.78 107.7 53.47 107.95 53.2 108.19 52.97 108.44 52.79 108.68 52.63 108.92 52.49 109.17 52.37 109.41 52.26 109.65 52.16 109.9 52.07 110.14 51.99 110.39 51.91 110.63 51.84 110.87 51.78 111.12 51.71 111.36 51.65 111.6 51.59 111.85 51.54 112.09 51.48 112.34 51.43 112.58 51.38 112.82 51.32 113.07 51.27 113.31 51.22 113.55 51.18 113.8 51.13 114.04 51.08 114.28 51.03 114.53 50.99 114.77 50.94 115.02 50.9 115.26 50.85 115.5 50.8 115.75 50.76 115.99 50.71 116.23 50.67 116.48 50.62 116.72 50.58 116.97 50.53 117.21 50.48 117.45 50.44 117.7 50.39 117.94 50.34 118.18 50.29 118.43 50.24 118.67 50.24 118.92 50.24 119.16 50.24 119.4 50.24 119.65 50.24 119.89 50.24 120.13 50.24 120.38 50.24 120.62 50.24 120.87 50.24 121.11 50.24 121.35 50.24 121.6 50.24 121.84 50.24 122.08 50.24 122.33 50.24 122.57 50.24 122.82 50.24 123.06 50.24 123.3 50.24 123.55 50.24 123.79 50.24 124.03 50.24 124.28 50.24 124.52 50.24 124.77 50.24 125.01 50.24 125.25 50.24 125.5 50.24 125.74 50.24 125.98 50.24 126.23 50.24 126.47 50.24 126.72 50.24 126.96 50.24 127.2 50.24 127.45 50.24 127.69 50.24 127.93 50.24" id="fig-8d3b6af6847647f2bdde22f533cc713a-element-66" class="geometry color_2" stroke="#D4CA3A"/>
            <path fill="none" d="M103.8,23.83 L 104.05 24.97 104.29 26.11 104.54 27.26 104.78 28.41 105.02 29.55 105.27 30.69 105.51 31.82 105.75 32.93 106 34.01 106.24 35.07 106.49 36.11 106.73 37.1 106.97 38.06 107.22 38.96 107.46 39.78 107.7 40.53 107.95 41.18 108.19 41.76 108.44 42.25 108.68 42.71 108.92 43.14 109.17 43.53 109.41 43.89 109.65 44.23 109.9 44.54 110.14 44.81 110.39 45.09 110.63 45.34 110.87 45.58 111.12 45.8 111.36 46.02 111.6 46.22 111.85 46.41 112.09 46.59 112.34 46.77 112.58 46.93 112.82 47.09 113.07 47.25 113.31 47.4 113.55 47.54 113.8 47.68 114.04 47.81 114.28 47.95 114.53 48.07 114.77 48.19 115.02 48.31 115.26 48.43 115.5 48.54 115.75 48.66 115.99 48.77 116.23 48.87 116.48 48.98 116.72 49.08 116.97 49.18 117.21 49.28 117.45 49.38 117.7 49.48 117.94 49.57 118.18 49.67 118.43 49.77 118.67 49.82 118.92 49.86 119.16 49.9 119.4 49.94 119.65 49.97 119.89 50.01 120.13 50.05 120.38 50.08 120.62 50.12 120.87 50.16 121.11 50.2 121.35 50.23 121.6 50.24 121.84 50.24 122.08 50.24 122.33 50.24 122.57 50.24 122.82 50.24 123.06 50.24 123.3 50.24 123.55 50.24 123.79 50.24 124.03 50.24 124.28 50.24 124.52 50.24 124.77 50.24 125.01 50.24 125.25 50.24 125.5 50.24 125.74 50.24 125.98 50.24 126.23 50.24 126.47 50.24 126.72 50.24 126.96 50.24 127.2 50.24 127.45 50.24 127.69 50.24 127.93 50.24" id="fig-8d3b6af6847647f2bdde22f533cc713a-element-67" class="geometry color_3" stroke="#FF5EA0"/>
          </g>
        </g>
      </g>
      <g clip-path="url(#fig-8d3b6af6847647f2bdde22f533cc713a-element-69)" id="fig-8d3b6af6847647f2bdde22f533cc713a-element-68">
        <g pointer-events="visible" opacity="1" fill="#000000" fill-opacity="0.000" stroke="#000000" stroke-opacity="0.000" class="guide background" id="fig-8d3b6af6847647f2bdde22f533cc713a-element-70">
          <rect x="59.79" y="7" width="34.16" height="65.86" id="fig-8d3b6af6847647f2bdde22f533cc713a-element-71"/>
        </g>
        <g class="guide ygridlines xfixed" stroke-dasharray="0.5,0.5" stroke-width="0.2" stroke="#D0D0E0" id="fig-8d3b6af6847647f2bdde22f533cc713a-element-72">
          <path fill="none" d="M59.79,70.86 L 93.96 70.86" id="fig-8d3b6af6847647f2bdde22f533cc713a-element-73"/>
          <path fill="none" d="M59.79,50.24 L 93.96 50.24" id="fig-8d3b6af6847647f2bdde22f533cc713a-element-74"/>
          <path fill="none" d="M59.79,29.62 L 93.96 29.62" id="fig-8d3b6af6847647f2bdde22f533cc713a-element-75"/>
          <path fill="none" d="M59.79,9 L 93.96 9" id="fig-8d3b6af6847647f2bdde22f533cc713a-element-76"/>
        </g>
        <g class="guide xgridlines yfixed" stroke-dasharray="0.5,0.5" stroke-width="0.2" stroke="#D0D0E0" id="fig-8d3b6af6847647f2bdde22f533cc713a-element-77">
          <path fill="none" d="M61.79,7 L 61.79 72.86" id="fig-8d3b6af6847647f2bdde22f533cc713a-element-78"/>
          <path fill="none" d="M67.83,7 L 67.83 72.86" id="fig-8d3b6af6847647f2bdde22f533cc713a-element-79"/>
          <path fill="none" d="M73.86,7 L 73.86 72.86" id="fig-8d3b6af6847647f2bdde22f533cc713a-element-80"/>
          <path fill="none" d="M79.89,7 L 79.89 72.86" id="fig-8d3b6af6847647f2bdde22f533cc713a-element-81"/>
          <path fill="none" d="M85.92,7 L 85.92 72.86" id="fig-8d3b6af6847647f2bdde22f533cc713a-element-82"/>
          <path fill="none" d="M91.96,7 L 91.96 72.86" id="fig-8d3b6af6847647f2bdde22f533cc713a-element-83"/>
        </g>
        <g class="plotpanel" id="fig-8d3b6af6847647f2bdde22f533cc713a-element-84">
          <g stroke-width="0.3" fill="#000000" fill-opacity="0.000" id="fig-8d3b6af6847647f2bdde22f533cc713a-element-85">
            <path fill="none" d="M65.64,46.99 L 65.89 47.01 66.13 47.02 66.37 47.04 66.62 47.05 66.86 47.07 67.1 47.09 67.35 47.11 67.59 47.12 67.84 47.14 68.08 47.16 68.32 47.18 68.57 47.19 68.81 47.21 69.05 47.22 69.3 47.23 69.54 47.25 69.79 47.26 70.03 47.28 70.27 47.3 70.52 47.41 70.76 47.55 71 47.68 71.25 47.8 71.49 47.92 71.74 48.03 71.98 48.13 72.22 48.23 72.47 48.32 72.71 48.42 72.95 48.5 73.2 48.59 73.44 48.67 73.69 48.74 73.93 48.82 74.17 48.89 74.42 48.96 74.66 49.02 74.9 49.09 75.15 49.15 75.39 49.21 75.64 49.27 75.88 49.33 76.12 49.39 76.37 49.44 76.61 49.5 76.85 49.55 77.1 49.6 77.34 49.65 77.59 49.7 77.83 49.75 78.07 49.8 78.32 49.85 78.56 49.9 78.8 49.94 79.05 49.99 79.29 50.04 79.54 50.08 79.78 50.13 80.02 50.18 80.27 50.23 80.51 50.24 80.75 50.24 81 50.24 81.24 50.24 81.49 50.24 81.73 50.24 81.97 50.24 82.22 50.24 82.46 50.24 82.7 50.24 82.95 50.24 83.19 50.24 83.43 50.24 83.68 50.24 83.92 50.24 84.17 50.24 84.41 50.24 84.65 50.24 84.9 50.24 85.14 50.24 85.38 50.24 85.63 50.24 85.87 50.24 86.12 50.24 86.36 50.24 86.6 50.24 86.85 50.24 87.09 50.24 87.33 50.24 87.58 50.24 87.82 50.24 88.07 50.24 88.31 50.24 88.55 50.24 88.8 50.24 89.04 50.24 89.28 50.24 89.53 50.24 89.77 50.24" id="fig-8d3b6af6847647f2bdde22f533cc713a-element-86" class="geometry color_1" stroke="#00BFFF"/>
            <path fill="none" d="M65.64,50.24 L 65.89 50.24 66.13 50.24 66.37 50.24 66.62 50.24 66.86 50.24 67.1 50.24 67.35 50.24 67.59 50.24 67.84 50.24 68.08 50.24 68.32 50.24 68.57 50.24 68.81 50.24 69.05 50.24 69.3 50.24 69.54 50.24 69.79 50.24 70.03 50.24 70.27 50.24 70.52 50.24 70.76 50.24 71 50.24 71.25 50.24 71.49 50.24 71.74 50.24 71.98 50.24 72.22 50.24 72.47 50.24 72.71 50.24 72.95 50.24 73.2 50.24 73.44 50.24 73.69 50.24 73.93 50.24 74.17 50.24 74.42 50.24 74.66 50.24 74.9 50.24 75.15 50.24 75.39 50.24 75.64 50.24 75.88 50.24 76.12 50.24 76.37 50.24 76.61 50.24 76.85 50.24 77.1 50.24 77.34 50.24 77.59 50.24 77.83 50.24 78.07 50.24 78.32 50.24 78.56 50.24 78.8 50.24 79.05 50.24 79.29 50.24 79.54 50.24 79.78 50.24 80.02 50.24 80.27 50.24 80.51 50.24 80.75 50.24 81 50.24 81.24 50.24 81.49 50.24 81.73 50.24 81.97 50.24 82.22 50.24 82.46 50.24 82.7 50.24 82.95 50.24 83.19 50.24 83.43 50.24 83.68 50.24 83.92 50.24 84.17 50.24 84.41 50.24 84.65 50.24 84.9 50.24 85.14 50.24 85.38 50.24 85.63 50.24 85.87 50.24 86.12 50.24 86.36 50.24 86.6 50.24 86.85 50.24 87.09 50.24 87.33 50.24 87.58 50.24 87.82 50.24 88.07 50.24 88.31 50.24 88.55 50.24 88.8 50.24 89.04 50.24 89.28 50.24 89.53 50.24 89.77 50.24" id="fig-8d3b6af6847647f2bdde22f533cc713a-element-87" class="geometry color_4" stroke="#00E5B2"/>
            <path fill="none" d="M65.64,50.24 L 65.89 50.24 66.13 50.24 66.37 50.24 66.62 50.24 66.86 50.24 67.1 50.24 67.35 50.24 67.59 50.24 67.84 50.24 68.08 50.24 68.32 50.24 68.57 50.24 68.81 50.24 69.05 50.24 69.3 50.24 69.54 50.24 69.79 50.24 70.03 50.24 70.27 50.24 70.52 50.24 70.76 50.24 71 50.24 71.25 50.24 71.49 50.24 71.74 50.24 71.98 50.24 72.22 50.24 72.47 50.24 72.71 50.24 72.95 50.24 73.2 50.24 73.44 50.24 73.69 50.24 73.93 50.24 74.17 50.24 74.42 50.24 74.66 50.24 74.9 50.24 75.15 50.24 75.39 50.24 75.64 50.24 75.88 50.24 76.12 50.24 76.37 50.24 76.61 50.24 76.85 50.24 77.1 50.24 77.34 50.24 77.59 50.24 77.83 50.24 78.07 50.24 78.32 50.24 78.56 50.24 78.8 50.24 79.05 50.24 79.29 50.24 79.54 50.24 79.78 50.24 80.02 50.24 80.27 50.24 80.51 50.24 80.75 50.24 81 50.24 81.24 50.24 81.49 50.24 81.73 50.24 81.97 50.24 82.22 50.24 82.46 50.29 82.7 50.36 82.95 50.42 83.19 50.49 83.43 50.55 83.68 50.6 83.92 50.65 84.17 50.69 84.41 50.71 84.65 50.71 84.9 50.7 85.14 50.69 85.38 50.67 85.63 50.65 85.87 50.63 86.12 50.59 86.36 50.56 86.6 50.52 86.85 50.47 87.09 50.42 87.33 50.36 87.58 50.29 87.82 50.24 88.07 50.24 88.31 50.24 88.55 50.24 88.8 50.24 89.04 50.24 89.28 50.24 89.53 50.24 89.77 50.24" id="fig-8d3b6af6847647f2bdde22f533cc713a-element-88" class="geometry color_2" stroke="#D4CA3A"/>
            <path fill="none" d="M65.64,50.24 L 65.89 50.24 66.13 50.24 66.37 50.24 66.62 50.24 66.86 50.24 67.1 50.24 67.35 50.24 67.59 50.24 67.84 50.24 68.08 50.24 68.32 50.24 68.57 50.24 68.81 50.24 69.05 50.24 69.3 50.24 69.54 50.24 69.79 50.24 70.03 50.24 70.27 50.24 70.52 50.24 70.76 50.24 71 50.24 71.25 50.24 71.49 50.24 71.74 50.24 71.98 50.24 72.22 50.24 72.47 50.24 72.71 50.24 72.95 50.24 73.2 50.24 73.44 50.24 73.69 50.24 73.93 50.24 74.17 50.24 74.42 50.24 74.66 50.24 74.9 50.24 75.15 50.24 75.39 50.24 75.64 50.24 75.88 50.24 76.12 50.24 76.37 50.24 76.61 50.24 76.85 50.24 77.1 50.24 77.34 50.24 77.59 50.24 77.83 50.24 78.07 50.24 78.32 50.24 78.56 50.24 78.8 50.24 79.05 50.24 79.29 50.24 79.54 50.24 79.78 50.24 80.02 50.24 80.27 50.24 80.51 50.24 80.75 50.24 81 50.24 81.24 50.24 81.49 50.24 81.73 50.24 81.97 50.24 82.22 50.24 82.46 50.24 82.7 50.24 82.95 50.24 83.19 50.24 83.43 50.24 83.68 50.24 83.92 50.24 84.17 50.24 84.41 50.24 84.65 50.24 84.9 50.24 85.14 50.24 85.38 50.24 85.63 50.24 85.87 50.24 86.12 50.24 86.36 50.24 86.6 50.24 86.85 50.24 87.09 50.24 87.33 50.24 87.58 50.24 87.82 50.24 88.07 50.24 88.31 50.24 88.55 50.24 88.8 50.24 89.04 50.24 89.28 50.24 89.53 50.24 89.77 50.24" id="fig-8d3b6af6847647f2bdde22f533cc713a-element-89" class="geometry color_3" stroke="#FF5EA0"/>
          </g>
        </g>
      </g>
      <g clip-path="url(#fig-8d3b6af6847647f2bdde22f533cc713a-element-91)" id="fig-8d3b6af6847647f2bdde22f533cc713a-element-90">
        <g pointer-events="visible" opacity="1" fill="#000000" fill-opacity="0.000" stroke="#000000" stroke-opacity="0.000" class="guide background" id="fig-8d3b6af6847647f2bdde22f533cc713a-element-92">
          <rect x="19.63" y="7" width="36.16" height="65.86" id="fig-8d3b6af6847647f2bdde22f533cc713a-element-93"/>
        </g>
        <g class="guide ygridlines xfixed" stroke-dasharray="0.5,0.5" stroke-width="0.2" stroke="#D0D0E0" id="fig-8d3b6af6847647f2bdde22f533cc713a-element-94">
          <path fill="none" d="M19.63,70.86 L 55.79 70.86" id="fig-8d3b6af6847647f2bdde22f533cc713a-element-95"/>
          <path fill="none" d="M19.63,50.24 L 55.79 50.24" id="fig-8d3b6af6847647f2bdde22f533cc713a-element-96"/>
          <path fill="none" d="M19.63,29.62 L 55.79 29.62" id="fig-8d3b6af6847647f2bdde22f533cc713a-element-97"/>
          <path fill="none" d="M19.63,9 L 55.79 9" id="fig-8d3b6af6847647f2bdde22f533cc713a-element-98"/>
        </g>
        <g class="guide xgridlines yfixed" stroke-dasharray="0.5,0.5" stroke-width="0.2" stroke="#D0D0E0" id="fig-8d3b6af6847647f2bdde22f533cc713a-element-99">
          <path fill="none" d="M21.63,7 L 21.63 72.86" id="fig-8d3b6af6847647f2bdde22f533cc713a-element-100"/>
          <path fill="none" d="M28.06,7 L 28.06 72.86" id="fig-8d3b6af6847647f2bdde22f533cc713a-element-101"/>
          <path fill="none" d="M34.5,7 L 34.5 72.86" id="fig-8d3b6af6847647f2bdde22f533cc713a-element-102"/>
          <path fill="none" d="M40.93,7 L 40.93 72.86" id="fig-8d3b6af6847647f2bdde22f533cc713a-element-103"/>
          <path fill="none" d="M47.36,7 L 47.36 72.86" id="fig-8d3b6af6847647f2bdde22f533cc713a-element-104"/>
          <path fill="none" d="M53.79,7 L 53.79 72.86" id="fig-8d3b6af6847647f2bdde22f533cc713a-element-105"/>
        </g>
        <g class="plotpanel" id="fig-8d3b6af6847647f2bdde22f533cc713a-element-106">
          <g stroke-width="0.3" fill="#000000" fill-opacity="0.000" id="fig-8d3b6af6847647f2bdde22f533cc713a-element-107">
            <path fill="none" d="M25.74,50.24 L 26 50.24 26.26 50.24 26.52 50.24 26.78 50.24 27.04 50.24 27.3 50.24 27.55 50.24 27.81 50.24 28.07 50.24 28.33 50.24 28.59 50.24 28.85 50.24 29.11 50.24 29.37 50.24 29.63 50.24 29.89 50.24 30.15 50.24 30.41 50.24 30.67 50.24 30.93 50.24 31.19 50.24 31.45 50.24 31.71 50.24 31.97 50.24 32.23 50.24 32.49 50.24 32.75 50.24 33.01 50.24 33.27 50.24 33.53 50.24 33.79 50.24 34.05 50.24 34.31 50.24 34.57 50.24 34.83 50.24 35.09 50.24 35.35 50.24 35.61 50.24 35.87 50.24 36.13 50.24 36.39 50.24 36.65 50.24 36.91 50.24 37.17 50.24 37.43 50.24 37.69 50.24 37.95 50.24 38.21 50.24 38.47 50.24 38.73 50.24 38.99 50.24 39.25 50.24 39.51 50.24 39.77 50.24 40.03 50.24 40.29 50.24 40.55 50.24 40.81 50.24 41.07 50.24 41.33 50.24 41.59 50.24 41.85 50.24 42.11 50.24 42.37 50.24 42.63 50.24 42.89 50.24 43.15 50.24 43.41 50.24 43.67 50.24 43.93 50.24 44.19 50.24 44.45 50.24 44.71 50.24 44.97 50.24 45.23 50.24 45.49 50.24 45.75 50.24 46.01 50.24 46.27 50.24 46.53 50.24 46.79 50.24 47.05 50.24 47.31 50.24 47.57 50.24 47.83 50.24 48.09 50.24 48.35 50.24 48.61 50.24 48.87 50.24 49.13 50.24 49.39 50.24 49.65 50.24 49.91 50.24 50.17 50.24 50.43 50.24 50.69 50.24 50.95 50.24 51.21 50.24 51.47 50.24" id="fig-8d3b6af6847647f2bdde22f533cc713a-element-108" class="geometry color_1" stroke="#00BFFF"/>
            <path fill="none" d="M25.74,50.24 L 26 50.24 26.26 50.24 26.52 50.24 26.78 50.24 27.04 50.24 27.3 50.24 27.55 50.24 27.81 50.24 28.07 50.24 28.33 50.24 28.59 50.24 28.85 50.24 29.11 50.24 29.37 50.24 29.63 50.24 29.89 50.24 30.15 50.24 30.41 50.24 30.67 50.24 30.93 50.24 31.19 50.24 31.45 50.24 31.71 50.24 31.97 50.24 32.23 50.24 32.49 50.24 32.75 50.24 33.01 50.24 33.27 50.24 33.53 50.24 33.79 50.24 34.05 50.24 34.31 50.24 34.57 50.24 34.83 50.24 35.09 50.24 35.35 50.24 35.61 50.24 35.87 50.24 36.13 50.24 36.39 50.24 36.65 50.24 36.91 50.24 37.17 50.24 37.43 50.24 37.69 50.24 37.95 50.24 38.21 50.24 38.47 50.24 38.73 50.24 38.99 50.24 39.25 50.24 39.51 50.24 39.77 50.24 40.03 50.24 40.29 50.24 40.55 50.24 40.81 50.24 41.07 50.24 41.33 50.24 41.59 50.24 41.85 50.24 42.11 50.24 42.37 50.24 42.63 50.24 42.89 50.24 43.15 50.24 43.41 50.24 43.67 50.24 43.93 50.24 44.19 50.24 44.45 50.24 44.71 50.24 44.97 50.24 45.23 50.24 45.49 50.24 45.75 50.24 46.01 50.24 46.27 50.24 46.53 50.24 46.79 50.24 47.05 50.24 47.31 50.24 47.57 50.24 47.83 50.24 48.09 50.24 48.35 50.24 48.61 50.24 48.87 50.24 49.13 50.24 49.39 50.24 49.65 50.24 49.91 50.24 50.17 50.24 50.43 50.24 50.69 50.24 50.95 50.24 51.21 50.24 51.47 50.24" id="fig-8d3b6af6847647f2bdde22f533cc713a-element-109" class="geometry color_4" stroke="#00E5B2"/>
            <path fill="none" d="M25.74,46.54 L 26 46.56 26.26 46.59 26.52 46.61 26.78 46.64 27.04 46.66 27.3 46.69 27.55 46.71 27.81 46.74 28.07 46.76 28.33 46.79 28.59 46.81 28.85 46.83 29.11 46.86 29.37 46.88 29.63 46.91 29.89 46.93 30.15 46.95 30.41 46.99 30.67 47.01 30.93 47.1 31.19 47.21 31.45 47.31 31.71 47.41 31.97 47.5 32.23 47.6 32.49 47.68 32.75 47.76 33.01 47.84 33.27 47.91 33.53 47.98 33.79 48.05 34.05 48.11 34.31 48.18 34.57 48.24 34.83 48.3 35.09 48.35 35.35 48.41 35.61 48.46 35.87 48.52 36.13 48.57 36.39 48.62 36.65 48.67 36.91 48.72 37.17 48.76 37.43 48.81 37.69 48.86 37.95 48.9 38.21 48.94 38.47 48.99 38.73 49.03 38.99 49.07 39.25 49.12 39.51 49.16 39.77 49.2 40.03 49.24 40.29 49.28 40.55 49.33 40.81 49.37 41.07 49.41 41.33 49.45 41.59 49.47 41.85 49.49 42.11 49.51 42.37 49.52 42.63 49.54 42.89 49.56 43.15 49.58 43.41 49.6 43.67 49.67 43.93 49.76 44.19 49.84 44.45 49.92 44.71 50 44.97 50.07 45.23 50.14 45.49 50.19 45.75 50.24 46.01 50.24 46.27 50.24 46.53 50.24 46.79 50.24 47.05 50.24 47.31 50.24 47.57 50.24 47.83 50.24 48.09 50.24 48.35 50.24 48.61 50.24 48.87 50.24 49.13 50.24 49.39 50.24 49.65 50.24 49.91 50.24 50.17 50.24 50.43 50.24 50.69 50.24 50.95 50.24 51.21 50.24 51.47 50.24" id="fig-8d3b6af6847647f2bdde22f533cc713a-element-110" class="geometry color_2" stroke="#D4CA3A"/>
            <path fill="none" d="M25.74,52.26 L 26 52.23 26.26 52.19 26.52 52.16 26.78 52.13 27.04 52.09 27.3 52.06 27.55 52.02 27.81 51.99 28.07 51.95 28.33 51.92 28.59 51.89 28.85 51.85 29.11 51.82 29.37 51.79 29.63 51.75 29.89 51.72 30.15 51.69 30.41 51.66 30.67 51.62 30.93 51.61 31.19 51.61 31.45 51.6 31.71 51.59 31.97 51.58 32.23 51.58 32.49 51.57 32.75 51.56 33.01 51.55 33.27 51.54 33.53 51.53 33.79 51.51 34.05 51.5 34.31 51.49 34.57 51.48 34.83 51.47 35.09 51.45 35.35 51.44 35.61 51.43 35.87 51.42 36.13 51.4 36.39 51.39 36.65 51.38 36.91 51.36 37.17 51.35 37.43 51.34 37.69 51.33 37.95 51.31 38.21 51.3 38.47 51.29 38.73 51.28 38.99 51.26 39.25 51.25 39.51 51.24 39.77 51.23 40.03 51.22 40.29 51.21 40.55 51.2 40.81 51.19 41.07 51.18 41.33 51.17 41.59 51.15 41.85 51.12 42.11 51.09 42.37 51.06 42.63 51.03 42.89 51 43.15 50.97 43.41 50.94 43.67 50.91 43.93 50.88 44.19 50.86 44.45 50.83 44.71 50.8 44.97 50.77 45.23 50.75 45.49 50.72 45.75 50.7 46.01 50.67 46.27 50.65 46.53 50.63 46.79 50.61 47.05 50.59 47.31 50.57 47.57 50.55 47.83 50.53 48.09 50.52 48.35 50.5 48.61 50.49 48.87 50.47 49.13 50.46 49.39 50.44 49.65 50.42 49.91 50.4 50.17 50.38 50.43 50.36 50.69 50.34 50.95 50.32 51.21 50.28 51.47 50.24" id="fig-8d3b6af6847647f2bdde22f533cc713a-element-111" class="geometry color_3" stroke="#FF5EA0"/>
          </g>
        </g>
      </g>
      <g class="guide ylabels" font-size="2.82" font-family="'PT Sans Caption','Helvetica Neue','Helvetica',sans-serif" fill="#6C606B" id="fig-8d3b6af6847647f2bdde22f533cc713a-element-112">
        <text x="18.63" y="70.86" text-anchor="end" dy="0.35em" id="fig-8d3b6af6847647f2bdde22f533cc713a-element-113">-50</text>
        <text x="18.63" y="50.24" text-anchor="end" dy="0.35em" id="fig-8d3b6af6847647f2bdde22f533cc713a-element-114">0</text>
        <text x="18.63" y="29.62" text-anchor="end" dy="0.35em" id="fig-8d3b6af6847647f2bdde22f533cc713a-element-115">50</text>
        <text x="18.63" y="9" text-anchor="end" dy="0.35em" id="fig-8d3b6af6847647f2bdde22f533cc713a-element-116">100</text>
      </g>
    </g>
  </g>
  <g font-size="3.88" font-family="'PT Sans','Helvetica Neue','Helvetica',sans-serif" fill="#564A55" stroke="#000000" stroke-opacity="0.000" id="fig-8d3b6af6847647f2bdde22f533cc713a-element-117">
    <text x="8.81" y="43.99" text-anchor="middle" dy="0.35em" transform="rotate(-90, 8.81, 45.99)" id="fig-8d3b6af6847647f2bdde22f533cc713a-element-118">βᵢ</text>
  </g>
</g>
<defs>
<clipPath id="fig-8d3b6af6847647f2bdde22f533cc713a-element-47">
  <path d="M97.96,7 L 132.12 7 132.12 72.86 97.96 72.86" />
</clipPath
><clipPath id="fig-8d3b6af6847647f2bdde22f533cc713a-element-69">
  <path d="M59.79,7 L 93.96 7 93.96 72.86 59.79 72.86" />
</clipPath
><clipPath id="fig-8d3b6af6847647f2bdde22f533cc713a-element-17">
  <path d="M12.61,5 L 134.12 5 134.12 86.99 12.61 86.99" />
</clipPath
><clipPath id="fig-8d3b6af6847647f2bdde22f533cc713a-element-91">
  <path d="M19.63,7 L 55.79 7 55.79 72.86 19.63 72.86" />
</clipPath
></defs>
</svg>
