<?xml version="1.0" encoding="UTF-8"?>
<svg xmlns="http://www.w3.org/2000/svg"
     xmlns:xlink="http://www.w3.org/1999/xlink"
     xmlns:gadfly="http://www.gadflyjl.org/ns"
     version="1.2"
     width="304.8mm" height="203.2mm" viewBox="0 0 304.8 203.2"
     stroke="none"
     fill="#000000"
     stroke-width="0.3"
     font-size="3.88"
>
<g class="plotroot xscalable yscalable" id="fig-feebd5f10bc74428af4291f7b9598fa1-element-1">
  <g font-size="3.88" font-family="'PT Sans','Helvetica Neue','Helvetica',sans-serif" fill="#564A55" stroke="#000000" stroke-opacity="0.000" id="fig-feebd5f10bc74428af4291f7b9598fa1-element-2">
    <text x="149.56" y="191.59" text-anchor="middle" dy="0.6em">λ</text>
  </g>
  <g class="guide colorkey" id="fig-feebd5f10bc74428af4291f7b9598fa1-element-3">
    <g fill="#4C404B" font-size="2.82" font-family="'PT Sans','Helvetica Neue','Helvetica',sans-serif" id="fig-feebd5f10bc74428af4291f7b9598fa1-element-4">
      <text x="290.33" y="93.17" dy="0.35em" id="fig-feebd5f10bc74428af4291f7b9598fa1-element-5" class="color_1">1</text>
      <text x="290.33" y="96.79" dy="0.35em" id="fig-feebd5f10bc74428af4291f7b9598fa1-element-6" class="color_2">2</text>
      <text x="290.33" y="100.42" dy="0.35em" id="fig-feebd5f10bc74428af4291f7b9598fa1-element-7" class="color_3">3</text>
      <text x="290.33" y="104.05" dy="0.35em" id="fig-feebd5f10bc74428af4291f7b9598fa1-element-8" class="color_4">4</text>
    </g>
    <g stroke="#000000" stroke-opacity="0.000" id="fig-feebd5f10bc74428af4291f7b9598fa1-element-9">
      <rect x="287.52" y="92.26" width="1.81" height="1.81" id="fig-feebd5f10bc74428af4291f7b9598fa1-element-10" class="color_1" fill="#00BFFF"/>
      <rect x="287.52" y="95.89" width="1.81" height="1.81" id="fig-feebd5f10bc74428af4291f7b9598fa1-element-11" class="color_2" fill="#D4CA3A"/>
      <rect x="287.52" y="99.51" width="1.81" height="1.81" id="fig-feebd5f10bc74428af4291f7b9598fa1-element-12" class="color_3" fill="#FF5EA0"/>
      <rect x="287.52" y="103.14" width="1.81" height="1.81" id="fig-feebd5f10bc74428af4291f7b9598fa1-element-13" class="color_4" fill="#00E5B2"/>
    </g>
    <g fill="#362A35" font-size="3.88" font-family="'PT Sans','Helvetica Neue','Helvetica',sans-serif" stroke="#000000" stroke-opacity="0.000" id="fig-feebd5f10bc74428af4291f7b9598fa1-element-14">
      <text x="287.52" y="89.35" id="fig-feebd5f10bc74428af4291f7b9598fa1-element-15">variable</text>
    </g>
  </g>
  <g clip-path="url(#fig-feebd5f10bc74428af4291f7b9598fa1-element-17)" id="fig-feebd5f10bc74428af4291f7b9598fa1-element-16">
    <g class="plotpanel" id="fig-feebd5f10bc74428af4291f7b9598fa1-element-18">
      <g font-size="3.88" font-family="'PT Sans','Helvetica Neue','Helvetica',sans-serif" fill="#564A55" stroke="#000000" stroke-opacity="0.000" id="fig-feebd5f10bc74428af4291f7b9598fa1-element-19">
        <text x="242.04" y="183.47" text-anchor="end" dy="0.35em" transform="rotate(-90, 242.04, 183.47)" id="fig-feebd5f10bc74428af4291f7b9598fa1-element-20">3</text>
      </g>
      <g font-size="3.88" font-family="'PT Sans','Helvetica Neue','Helvetica',sans-serif" fill="#564A55" stroke="#000000" stroke-opacity="0.000" id="fig-feebd5f10bc74428af4291f7b9598fa1-element-21">
        <text x="153.07" y="183.47" text-anchor="end" dy="0.35em" transform="rotate(-90, 153.07, 183.47)" id="fig-feebd5f10bc74428af4291f7b9598fa1-element-22">2</text>
      </g>
      <g font-size="3.88" font-family="'PT Sans','Helvetica Neue','Helvetica',sans-serif" fill="#564A55" stroke="#000000" stroke-opacity="0.000" id="fig-feebd5f10bc74428af4291f7b9598fa1-element-23">
        <text x="63.11" y="183.47" text-anchor="end" dy="0.35em" transform="rotate(-90, 63.11, 183.47)" id="fig-feebd5f10bc74428af4291f7b9598fa1-element-24">1</text>
      </g>
      <g class="guide xlabels" font-size="2.82" font-family="'PT Sans Caption','Helvetica Neue','Helvetica',sans-serif" fill="#6C606B" id="fig-feebd5f10bc74428af4291f7b9598fa1-element-25">
        <text x="201.56" y="175.46" text-anchor="middle" dy="0.6em" id="fig-feebd5f10bc74428af4291f7b9598fa1-element-26">10<tspan style="dominant-baseline:inherit" dy="-0.6em" font-size="83%">-5</tspan><tspan dy="0.498000em"></tspan></text>
        <text x="217.75" y="175.46" text-anchor="middle" dy="0.6em" id="fig-feebd5f10bc74428af4291f7b9598fa1-element-27">10<tspan style="dominant-baseline:inherit" dy="-0.6em" font-size="83%">-4</tspan><tspan dy="0.498000em"></tspan></text>
        <text x="233.94" y="175.46" text-anchor="middle" dy="0.6em" id="fig-feebd5f10bc74428af4291f7b9598fa1-element-28">10<tspan style="dominant-baseline:inherit" dy="-0.6em" font-size="83%">-3</tspan><tspan dy="0.498000em"></tspan></text>
        <text x="250.13" y="175.46" text-anchor="middle" dy="0.6em" id="fig-feebd5f10bc74428af4291f7b9598fa1-element-29">10<tspan style="dominant-baseline:inherit" dy="-0.6em" font-size="83%">-2</tspan><tspan dy="0.498000em"></tspan></text>
        <text x="266.33" y="175.46" text-anchor="middle" dy="0.6em" id="fig-feebd5f10bc74428af4291f7b9598fa1-element-30">10<tspan style="dominant-baseline:inherit" dy="-0.6em" font-size="83%">-1</tspan><tspan dy="0.498000em"></tspan></text>
        <text x="282.52" y="175.46" text-anchor="middle" dy="0.6em" id="fig-feebd5f10bc74428af4291f7b9598fa1-element-31">10<tspan style="dominant-baseline:inherit" dy="-0.6em" font-size="83%">0</tspan><tspan dy="0.498000em"></tspan></text>
      </g>
      <g class="guide xlabels" font-size="2.82" font-family="'PT Sans Caption','Helvetica Neue','Helvetica',sans-serif" fill="#6C606B" id="fig-feebd5f10bc74428af4291f7b9598fa1-element-32">
        <text x="112.59" y="175.46" text-anchor="middle" dy="0.6em" id="fig-feebd5f10bc74428af4291f7b9598fa1-element-33">10<tspan style="dominant-baseline:inherit" dy="-0.6em" font-size="83%">-5</tspan><tspan dy="0.498000em"></tspan></text>
        <text x="128.79" y="175.46" text-anchor="middle" dy="0.6em" id="fig-feebd5f10bc74428af4291f7b9598fa1-element-34">10<tspan style="dominant-baseline:inherit" dy="-0.6em" font-size="83%">-4</tspan><tspan dy="0.498000em"></tspan></text>
        <text x="144.98" y="175.46" text-anchor="middle" dy="0.6em" id="fig-feebd5f10bc74428af4291f7b9598fa1-element-35">10<tspan style="dominant-baseline:inherit" dy="-0.6em" font-size="83%">-3</tspan><tspan dy="0.498000em"></tspan></text>
        <text x="161.17" y="175.46" text-anchor="middle" dy="0.6em" id="fig-feebd5f10bc74428af4291f7b9598fa1-element-36">10<tspan style="dominant-baseline:inherit" dy="-0.6em" font-size="83%">-2</tspan><tspan dy="0.498000em"></tspan></text>
        <text x="177.36" y="175.46" text-anchor="middle" dy="0.6em" id="fig-feebd5f10bc74428af4291f7b9598fa1-element-37">10<tspan style="dominant-baseline:inherit" dy="-0.6em" font-size="83%">-1</tspan><tspan dy="0.498000em"></tspan></text>
        <text x="193.56" y="175.46" text-anchor="middle" dy="0.6em" id="fig-feebd5f10bc74428af4291f7b9598fa1-element-38">10<tspan style="dominant-baseline:inherit" dy="-0.6em" font-size="83%">0</tspan><tspan dy="0.498000em"></tspan></text>
      </g>
      <g class="guide xlabels" font-size="2.82" font-family="'PT Sans Caption','Helvetica Neue','Helvetica',sans-serif" fill="#6C606B" id="fig-feebd5f10bc74428af4291f7b9598fa1-element-39">
        <text x="21.63" y="175.46" text-anchor="middle" dy="0.6em" id="fig-feebd5f10bc74428af4291f7b9598fa1-element-40">10<tspan style="dominant-baseline:inherit" dy="-0.6em" font-size="83%">-5</tspan><tspan dy="0.498000em"></tspan></text>
        <text x="38.22" y="175.46" text-anchor="middle" dy="0.6em" id="fig-feebd5f10bc74428af4291f7b9598fa1-element-41">10<tspan style="dominant-baseline:inherit" dy="-0.6em" font-size="83%">-4</tspan><tspan dy="0.498000em"></tspan></text>
        <text x="54.82" y="175.46" text-anchor="middle" dy="0.6em" id="fig-feebd5f10bc74428af4291f7b9598fa1-element-42">10<tspan style="dominant-baseline:inherit" dy="-0.6em" font-size="83%">-3</tspan><tspan dy="0.498000em"></tspan></text>
        <text x="71.41" y="175.46" text-anchor="middle" dy="0.6em" id="fig-feebd5f10bc74428af4291f7b9598fa1-element-43">10<tspan style="dominant-baseline:inherit" dy="-0.6em" font-size="83%">-2</tspan><tspan dy="0.498000em"></tspan></text>
        <text x="88" y="175.46" text-anchor="middle" dy="0.6em" id="fig-feebd5f10bc74428af4291f7b9598fa1-element-44">10<tspan style="dominant-baseline:inherit" dy="-0.6em" font-size="83%">-1</tspan><tspan dy="0.498000em"></tspan></text>
        <text x="104.59" y="175.46" text-anchor="middle" dy="0.6em" id="fig-feebd5f10bc74428af4291f7b9598fa1-element-45">10<tspan style="dominant-baseline:inherit" dy="-0.6em" font-size="83%">0</tspan><tspan dy="0.498000em"></tspan></text>
      </g>
      <g clip-path="url(#fig-feebd5f10bc74428af4291f7b9598fa1-element-47)" id="fig-feebd5f10bc74428af4291f7b9598fa1-element-46">
        <g pointer-events="visible" opacity="1" fill="#000000" fill-opacity="0.000" stroke="#000000" stroke-opacity="0.000" class="guide background" id="fig-feebd5f10bc74428af4291f7b9598fa1-element-48">
          <rect x="199.56" y="7" width="84.96" height="167.46" id="fig-feebd5f10bc74428af4291f7b9598fa1-element-49"/>
        </g>
        <g class="guide ygridlines xfixed" stroke-dasharray="0.5,0.5" stroke-width="0.2" stroke="#D0D0E0" id="fig-feebd5f10bc74428af4291f7b9598fa1-element-50">
          <path fill="none" d="M199.56,172.46 L 284.52 172.46" id="fig-feebd5f10bc74428af4291f7b9598fa1-element-51"/>
          <path fill="none" d="M199.56,117.97 L 284.52 117.97" id="fig-feebd5f10bc74428af4291f7b9598fa1-element-52"/>
          <path fill="none" d="M199.56,63.49 L 284.52 63.49" id="fig-feebd5f10bc74428af4291f7b9598fa1-element-53"/>
          <path fill="none" d="M199.56,9 L 284.52 9" id="fig-feebd5f10bc74428af4291f7b9598fa1-element-54"/>
        </g>
        <g class="guide xgridlines yfixed" stroke-dasharray="0.5,0.5" stroke-width="0.2" stroke="#D0D0E0" id="fig-feebd5f10bc74428af4291f7b9598fa1-element-55">
          <path fill="none" d="M201.56,7 L 201.56 174.46" id="fig-feebd5f10bc74428af4291f7b9598fa1-element-56"/>
          <path fill="none" d="M217.75,7 L 217.75 174.46" id="fig-feebd5f10bc74428af4291f7b9598fa1-element-57"/>
          <path fill="none" d="M233.94,7 L 233.94 174.46" id="fig-feebd5f10bc74428af4291f7b9598fa1-element-58"/>
          <path fill="none" d="M250.13,7 L 250.13 174.46" id="fig-feebd5f10bc74428af4291f7b9598fa1-element-59"/>
          <path fill="none" d="M266.33,7 L 266.33 174.46" id="fig-feebd5f10bc74428af4291f7b9598fa1-element-60"/>
          <path fill="none" d="M282.52,7 L 282.52 174.46" id="fig-feebd5f10bc74428af4291f7b9598fa1-element-61"/>
        </g>
        <g class="plotpanel" id="fig-feebd5f10bc74428af4291f7b9598fa1-element-62">
          <g stroke-width="0.3" fill="#000000" fill-opacity="0.000" id="fig-feebd5f10bc74428af4291f7b9598fa1-element-63">
            <path fill="none" d="M211.89,128.32 L 212.54 127.69 213.2 127.05 213.85 126.42 214.5 125.79 215.16 125.16 215.81 124.54 216.47 123.94 217.12 123.34 217.77 122.76 218.43 122.18 219.08 121.63 219.74 121.08 220.39 120.56 221.05 120.06 221.7 119.58 222.35 119.14 223.01 118.73 223.66 118.36 224.32 118.03 224.97 117.97 225.63 117.97 226.28 117.97 226.93 117.97 227.59 117.97 228.24 117.97 228.9 117.97 229.55 117.97 230.21 117.97 230.86 117.97 231.51 117.97 232.17 117.97 232.82 117.97 233.48 117.97 234.13 117.97 234.78 117.97 235.44 117.97 236.09 117.97 236.75 117.97 237.4 117.97 238.06 117.97 238.71 117.97 239.36 117.97 240.02 117.97 240.67 117.97 241.33 117.97 241.98 117.97 242.64 117.97 243.29 117.97 243.94 117.97 244.6 117.97 245.25 117.97 245.91 117.97 246.56 117.97 247.22 117.97 247.87 117.97 248.52 117.97 249.18 117.97 249.83 117.97 250.49 117.97 251.14 117.97 251.8 117.97 252.45 117.97 253.1 117.97 253.76 117.97 254.41 117.97 255.07 117.97 255.72 117.97 256.37 117.97 257.03 117.97 257.68 117.97 258.34 117.97 258.99 117.97 259.65 117.97 260.3 117.97 260.95 117.97 261.61 117.97 262.26 117.97 262.92 117.97 263.57 117.97 264.23 117.97 264.88 117.97 265.53 117.97 266.19 117.97 266.84 117.97 267.5 117.97 268.15 117.97 268.81 117.97 269.46 117.97 270.11 117.97 270.77 117.97 271.42 117.97 272.08 117.97 272.73 117.97 273.39 117.97 274.04 117.97 274.69 117.97 275.35 117.97 276 117.97 276.66 117.97" id="fig-feebd5f10bc74428af4291f7b9598fa1-element-64" class="geometry color_1" stroke="#00BFFF"/>
            <path fill="none" d="M211.89,51.6 L 212.54 54.86 213.2 58.15 213.85 61.45 214.5 64.76 215.16 68.05 215.81 71.32 216.47 74.55 217.12 77.73 217.77 80.84 218.43 83.85 219.08 86.76 219.74 89.55 220.39 92.19 221.05 94.63 221.7 96.83 222.35 98.74 223.01 100.33 223.66 101.65 224.32 102.67 224.97 103.59 225.63 104.39 226.28 105.05 226.93 105.64 227.59 106.16 228.24 106.63 228.9 107.04 229.55 107.41 230.21 107.76 230.86 108.08 231.51 108.38 232.17 108.66 232.82 108.92 233.48 109.17 234.13 109.4 234.78 109.63 235.44 109.84 236.09 110.04 236.75 110.23 237.4 110.42 238.06 110.59 238.71 110.75 239.36 110.9 240.02 111.05 240.67 111.18 241.33 111.31 241.98 111.43 242.64 111.54 243.29 111.64 243.94 111.74 244.6 111.83 245.25 111.91 245.91 111.98 246.56 112.05 247.22 112.11 247.87 112.17 248.52 112.22 249.18 112.26 249.83 112.31 250.49 112.35 251.14 112.38 251.8 112.47 252.45 112.58 253.1 112.69 253.76 112.8 254.41 112.91 255.07 113.02 255.72 113.13 256.37 113.24 257.03 113.4 257.68 113.58 258.34 113.76 258.99 113.94 259.65 114.2 260.3 114.5 260.95 114.78 261.61 115.04 262.26 115.26 262.92 115.46 263.57 115.65 264.23 115.82 264.88 115.98 265.53 116.13 266.19 116.27 266.84 116.4 267.5 116.54 268.15 116.67 268.81 116.79 269.46 116.92 270.11 117.05 270.77 117.18 271.42 117.3 272.08 117.42 272.73 117.53 273.39 117.64 274.04 117.75 274.69 117.87 275.35 117.97 276 117.97 276.66 117.97" id="fig-feebd5f10bc74428af4291f7b9598fa1-element-65" class="geometry color_4" stroke="#00E5B2"/>
            <path fill="none" d="M211.89,146.33 L 212.54 144.96 213.2 143.59 213.85 142.21 214.5 140.83 215.16 139.45 215.81 138.09 216.47 136.74 217.12 135.4 217.77 134.1 218.43 132.84 219.08 131.61 219.74 130.44 220.39 129.32 221.05 128.27 221.7 127.33 222.35 126.5 223.01 125.79 223.66 125.19 224.32 124.72 224.97 124.29 225.63 123.92 226.28 123.59 226.93 123.3 227.59 123.04 228.24 122.81 228.9 122.6 229.55 122.4 230.21 122.21 230.86 122.04 231.51 121.87 232.17 121.71 232.82 121.55 233.48 121.4 234.13 121.26 234.78 121.11 235.44 120.97 236.09 120.84 236.75 120.71 237.4 120.57 238.06 120.45 238.71 120.32 239.36 120.19 240.02 120.07 240.67 119.95 241.33 119.83 241.98 119.71 242.64 119.59 243.29 119.47 243.94 119.35 244.6 119.23 245.25 119.11 245.91 118.99 246.56 118.86 247.22 118.74 247.87 118.62 248.52 118.49 249.18 118.36 249.83 118.23 250.49 118.1 251.14 117.97 251.8 117.97 252.45 117.97 253.1 117.97 253.76 117.97 254.41 117.97 255.07 117.97 255.72 117.97 256.37 117.97 257.03 117.97 257.68 117.97 258.34 117.97 258.99 117.97 259.65 117.97 260.3 117.97 260.95 117.97 261.61 117.97 262.26 117.97 262.92 117.97 263.57 117.97 264.23 117.97 264.88 117.97 265.53 117.97 266.19 117.97 266.84 117.97 267.5 117.97 268.15 117.97 268.81 117.97 269.46 117.97 270.11 117.97 270.77 117.97 271.42 117.97 272.08 117.97 272.73 117.97 273.39 117.97 274.04 117.97 274.69 117.97 275.35 117.97 276 117.97 276.66 117.97" id="fig-feebd5f10bc74428af4291f7b9598fa1-element-66" class="geometry color_2" stroke="#D4CA3A"/>
            <path fill="none" d="M211.89,48.19 L 212.54 51.19 213.2 54.22 213.85 57.25 214.5 60.29 215.16 63.31 215.81 66.32 216.47 69.29 217.12 72.22 217.77 75.1 218.43 77.9 219.08 80.63 219.74 83.26 220.39 85.78 221.05 88.16 221.7 90.34 222.35 92.31 223.01 94.04 223.66 95.57 224.32 96.85 224.97 98.08 225.63 99.22 226.28 100.24 226.93 101.2 227.59 102.08 228.24 102.9 228.9 103.63 229.55 104.35 230.21 105.02 230.86 105.65 231.51 106.25 232.17 106.82 232.82 107.35 233.48 107.86 234.13 108.34 234.78 108.8 235.44 109.24 236.09 109.66 236.75 110.07 237.4 110.46 238.06 110.84 238.71 111.21 239.36 111.56 240.02 111.91 240.67 112.24 241.33 112.57 241.98 112.88 242.64 113.19 243.29 113.49 243.94 113.79 244.6 114.08 245.25 114.36 245.91 114.64 246.56 114.91 247.22 115.18 247.87 115.44 248.52 115.71 249.18 115.96 249.83 116.22 250.49 116.47 251.14 116.72 251.8 116.85 252.45 116.96 253.1 117.06 253.76 117.17 254.41 117.27 255.07 117.37 255.72 117.47 256.37 117.56 257.03 117.66 257.68 117.76 258.34 117.85 258.99 117.94 259.65 117.97 260.3 117.97 260.95 117.97 261.61 117.97 262.26 117.97 262.92 117.97 263.57 117.97 264.23 117.97 264.88 117.97 265.53 117.97 266.19 117.97 266.84 117.97 267.5 117.97 268.15 117.97 268.81 117.97 269.46 117.97 270.11 117.97 270.77 117.97 271.42 117.97 272.08 117.97 272.73 117.97 273.39 117.97 274.04 117.97 274.69 117.97 275.35 117.97 276 117.97 276.66 117.97" id="fig-feebd5f10bc74428af4291f7b9598fa1-element-67" class="geometry color_3" stroke="#FF5EA0"/>
          </g>
        </g>
      </g>
      <g clip-path="url(#fig-feebd5f10bc74428af4291f7b9598fa1-element-69)" id="fig-feebd5f10bc74428af4291f7b9598fa1-element-68">
        <g pointer-events="visible" opacity="1" fill="#000000" fill-opacity="0.000" stroke="#000000" stroke-opacity="0.000" class="guide background" id="fig-feebd5f10bc74428af4291f7b9598fa1-element-70">
          <rect x="110.59" y="7" width="84.96" height="167.46" id="fig-feebd5f10bc74428af4291f7b9598fa1-element-71"/>
        </g>
        <g class="guide ygridlines xfixed" stroke-dasharray="0.5,0.5" stroke-width="0.2" stroke="#D0D0E0" id="fig-feebd5f10bc74428af4291f7b9598fa1-element-72">
          <path fill="none" d="M110.59,172.46 L 195.56 172.46" id="fig-feebd5f10bc74428af4291f7b9598fa1-element-73"/>
          <path fill="none" d="M110.59,117.97 L 195.56 117.97" id="fig-feebd5f10bc74428af4291f7b9598fa1-element-74"/>
          <path fill="none" d="M110.59,63.49 L 195.56 63.49" id="fig-feebd5f10bc74428af4291f7b9598fa1-element-75"/>
          <path fill="none" d="M110.59,9 L 195.56 9" id="fig-feebd5f10bc74428af4291f7b9598fa1-element-76"/>
        </g>
        <g class="guide xgridlines yfixed" stroke-dasharray="0.5,0.5" stroke-width="0.2" stroke="#D0D0E0" id="fig-feebd5f10bc74428af4291f7b9598fa1-element-77">
          <path fill="none" d="M112.59,7 L 112.59 174.46" id="fig-feebd5f10bc74428af4291f7b9598fa1-element-78"/>
          <path fill="none" d="M128.79,7 L 128.79 174.46" id="fig-feebd5f10bc74428af4291f7b9598fa1-element-79"/>
          <path fill="none" d="M144.98,7 L 144.98 174.46" id="fig-feebd5f10bc74428af4291f7b9598fa1-element-80"/>
          <path fill="none" d="M161.17,7 L 161.17 174.46" id="fig-feebd5f10bc74428af4291f7b9598fa1-element-81"/>
          <path fill="none" d="M177.36,7 L 177.36 174.46" id="fig-feebd5f10bc74428af4291f7b9598fa1-element-82"/>
          <path fill="none" d="M193.56,7 L 193.56 174.46" id="fig-feebd5f10bc74428af4291f7b9598fa1-element-83"/>
        </g>
        <g class="plotpanel" id="fig-feebd5f10bc74428af4291f7b9598fa1-element-84">
          <g stroke-width="0.3" fill="#000000" fill-opacity="0.000" id="fig-feebd5f10bc74428af4291f7b9598fa1-element-85">
            <path fill="none" d="M122.92,109.39 L 123.58 109.43 124.23 109.47 124.89 109.51 125.54 109.55 126.2 109.59 126.85 109.64 127.5 109.69 128.16 109.74 128.81 109.79 129.47 109.83 130.12 109.88 130.78 109.92 131.43 109.96 132.08 110 132.74 110.03 133.39 110.07 134.05 110.1 134.7 110.15 135.36 110.2 136.01 110.5 136.66 110.86 137.32 111.2 137.97 111.53 138.63 111.83 139.28 112.13 139.93 112.39 140.59 112.66 141.24 112.91 141.9 113.15 142.55 113.38 143.21 113.61 143.86 113.82 144.51 114.02 145.17 114.22 145.82 114.4 146.48 114.58 147.13 114.76 147.79 114.93 148.44 115.1 149.09 115.26 149.75 115.42 150.4 115.57 151.06 115.72 151.71 115.86 152.37 116.01 153.02 116.14 153.67 116.28 154.33 116.42 154.98 116.55 155.64 116.68 156.29 116.81 156.95 116.94 157.6 117.06 158.25 117.19 158.91 117.31 159.56 117.44 160.22 117.56 160.87 117.69 161.52 117.81 162.18 117.94 162.83 117.97 163.49 117.97 164.14 117.97 164.8 117.97 165.45 117.97 166.1 117.97 166.76 117.97 167.41 117.97 168.07 117.97 168.72 117.97 169.38 117.97 170.03 117.97 170.68 117.97 171.34 117.97 171.99 117.97 172.65 117.97 173.3 117.97 173.96 117.97 174.61 117.97 175.26 117.97 175.92 117.97 176.57 117.97 177.23 117.97 177.88 117.97 178.53 117.97 179.19 117.97 179.84 117.97 180.5 117.97 181.15 117.97 181.81 117.97 182.46 117.97 183.11 117.97 183.77 117.97 184.42 117.97 185.08 117.97 185.73 117.97 186.39 117.97 187.04 117.97 187.69 117.97" id="fig-feebd5f10bc74428af4291f7b9598fa1-element-86" class="geometry color_1" stroke="#00BFFF"/>
            <path fill="none" d="M122.92,117.97 L 123.58 117.97 124.23 117.97 124.89 117.97 125.54 117.97 126.2 117.97 126.85 117.97 127.5 117.97 128.16 117.97 128.81 117.97 129.47 117.97 130.12 117.97 130.78 117.97 131.43 117.97 132.08 117.97 132.74 117.97 133.39 117.97 134.05 117.97 134.7 117.97 135.36 117.97 136.01 117.97 136.66 117.97 137.32 117.97 137.97 117.97 138.63 117.97 139.28 117.97 139.93 117.97 140.59 117.97 141.24 117.97 141.9 117.97 142.55 117.97 143.21 117.97 143.86 117.97 144.51 117.97 145.17 117.97 145.82 117.97 146.48 117.97 147.13 117.97 147.79 117.97 148.44 117.97 149.09 117.97 149.75 117.97 150.4 117.97 151.06 117.97 151.71 117.97 152.37 117.97 153.02 117.97 153.67 117.97 154.33 117.97 154.98 117.97 155.64 117.97 156.29 117.97 156.95 117.97 157.6 117.97 158.25 117.97 158.91 117.97 159.56 117.97 160.22 117.97 160.87 117.97 161.52 117.97 162.18 117.97 162.83 117.97 163.49 117.97 164.14 117.97 164.8 117.97 165.45 117.97 166.1 117.97 166.76 117.97 167.41 117.97 168.07 117.97 168.72 117.97 169.38 117.97 170.03 117.97 170.68 117.97 171.34 117.97 171.99 117.97 172.65 117.97 173.3 117.97 173.96 117.97 174.61 117.97 175.26 117.97 175.92 117.97 176.57 117.97 177.23 117.97 177.88 117.97 178.53 117.97 179.19 117.97 179.84 117.97 180.5 117.97 181.15 117.97 181.81 117.97 182.46 117.97 183.11 117.97 183.77 117.97 184.42 117.97 185.08 117.97 185.73 117.97 186.39 117.97 187.04 117.97 187.69 117.97" id="fig-feebd5f10bc74428af4291f7b9598fa1-element-87" class="geometry color_4" stroke="#00E5B2"/>
            <path fill="none" d="M122.92,117.97 L 123.58 117.97 124.23 117.97 124.89 117.97 125.54 117.97 126.2 117.97 126.85 117.97 127.5 117.97 128.16 117.97 128.81 117.97 129.47 117.97 130.12 117.97 130.78 117.97 131.43 117.97 132.08 117.97 132.74 117.97 133.39 117.97 134.05 117.97 134.7 117.97 135.36 117.97 136.01 117.97 136.66 117.97 137.32 117.97 137.97 117.97 138.63 117.97 139.28 117.97 139.93 117.97 140.59 117.97 141.24 117.97 141.9 117.97 142.55 117.97 143.21 117.97 143.86 117.97 144.51 117.97 145.17 117.97 145.82 117.97 146.48 117.97 147.13 117.97 147.79 117.97 148.44 117.97 149.09 117.97 149.75 117.97 150.4 117.97 151.06 117.97 151.71 117.97 152.37 117.97 153.02 117.97 153.67 117.97 154.33 117.97 154.98 117.97 155.64 117.97 156.29 117.97 156.95 117.97 157.6 117.97 158.25 117.97 158.91 117.97 159.56 117.97 160.22 117.97 160.87 117.97 161.52 117.97 162.18 117.97 162.83 117.97 163.49 117.97 164.14 117.97 164.8 117.97 165.45 117.97 166.1 117.97 166.76 117.97 167.41 117.97 168.07 118.12 168.72 118.29 169.38 118.46 170.03 118.63 170.68 118.78 171.34 118.93 171.99 119.05 172.65 119.15 173.3 119.22 173.96 119.21 174.61 119.2 175.26 119.17 175.92 119.12 176.57 119.06 177.23 118.99 177.88 118.91 178.53 118.81 179.19 118.7 179.84 118.58 180.5 118.44 181.15 118.29 181.81 118.11 182.46 117.97 183.11 117.97 183.77 117.97 184.42 117.97 185.08 117.97 185.73 117.97 186.39 117.97 187.04 117.97 187.69 117.97" id="fig-feebd5f10bc74428af4291f7b9598fa1-element-88" class="geometry color_2" stroke="#D4CA3A"/>
            <path fill="none" d="M122.92,117.97 L 123.58 117.97 124.23 117.97 124.89 117.97 125.54 117.97 126.2 117.97 126.85 117.97 127.5 117.97 128.16 117.97 128.81 117.97 129.47 117.97 130.12 117.97 130.78 117.97 131.43 117.97 132.08 117.97 132.74 117.97 133.39 117.97 134.05 117.97 134.7 117.97 135.36 117.97 136.01 117.97 136.66 117.97 137.32 117.97 137.97 117.97 138.63 117.97 139.28 117.97 139.93 117.97 140.59 117.97 141.24 117.97 141.9 117.97 142.55 117.97 143.21 117.97 143.86 117.97 144.51 117.97 145.17 117.97 145.82 117.97 146.48 117.97 147.13 117.97 147.79 117.97 148.44 117.97 149.09 117.97 149.75 117.97 150.4 117.97 151.06 117.97 151.71 117.97 152.37 117.97 153.02 117.97 153.67 117.97 154.33 117.97 154.98 117.97 155.64 117.97 156.29 117.97 156.95 117.97 157.6 117.97 158.25 117.97 158.91 117.97 159.56 117.97 160.22 117.97 160.87 117.97 161.52 117.97 162.18 117.97 162.83 117.97 163.49 117.97 164.14 117.97 164.8 117.97 165.45 117.97 166.1 117.97 166.76 117.97 167.41 117.97 168.07 117.97 168.72 117.97 169.38 117.97 170.03 117.97 170.68 117.97 171.34 117.97 171.99 117.97 172.65 117.97 173.3 117.97 173.96 117.97 174.61 117.97 175.26 117.97 175.92 117.97 176.57 117.97 177.23 117.97 177.88 117.97 178.53 117.97 179.19 117.97 179.84 117.97 180.5 117.97 181.15 117.97 181.81 117.97 182.46 117.97 183.11 117.97 183.77 117.97 184.42 117.97 185.08 117.97 185.73 117.97 186.39 117.97 187.04 117.97 187.69 117.97" id="fig-feebd5f10bc74428af4291f7b9598fa1-element-89" class="geometry color_3" stroke="#FF5EA0"/>
          </g>
        </g>
      </g>
      <g clip-path="url(#fig-feebd5f10bc74428af4291f7b9598fa1-element-91)" id="fig-feebd5f10bc74428af4291f7b9598fa1-element-90">
        <g pointer-events="visible" opacity="1" fill="#000000" fill-opacity="0.000" stroke="#000000" stroke-opacity="0.000" class="guide background" id="fig-feebd5f10bc74428af4291f7b9598fa1-element-92">
          <rect x="19.63" y="7" width="86.96" height="167.46" id="fig-feebd5f10bc74428af4291f7b9598fa1-element-93"/>
        </g>
        <g class="guide ygridlines xfixed" stroke-dasharray="0.5,0.5" stroke-width="0.2" stroke="#D0D0E0" id="fig-feebd5f10bc74428af4291f7b9598fa1-element-94">
          <path fill="none" d="M19.63,172.46 L 106.59 172.46" id="fig-feebd5f10bc74428af4291f7b9598fa1-element-95"/>
          <path fill="none" d="M19.63,117.97 L 106.59 117.97" id="fig-feebd5f10bc74428af4291f7b9598fa1-element-96"/>
          <path fill="none" d="M19.63,63.49 L 106.59 63.49" id="fig-feebd5f10bc74428af4291f7b9598fa1-element-97"/>
          <path fill="none" d="M19.63,9 L 106.59 9" id="fig-feebd5f10bc74428af4291f7b9598fa1-element-98"/>
        </g>
        <g class="guide xgridlines yfixed" stroke-dasharray="0.5,0.5" stroke-width="0.2" stroke="#D0D0E0" id="fig-feebd5f10bc74428af4291f7b9598fa1-element-99">
          <path fill="none" d="M21.63,7 L 21.63 174.46" id="fig-feebd5f10bc74428af4291f7b9598fa1-element-100"/>
          <path fill="none" d="M38.22,7 L 38.22 174.46" id="fig-feebd5f10bc74428af4291f7b9598fa1-element-101"/>
          <path fill="none" d="M54.82,7 L 54.82 174.46" id="fig-feebd5f10bc74428af4291f7b9598fa1-element-102"/>
          <path fill="none" d="M71.41,7 L 71.41 174.46" id="fig-feebd5f10bc74428af4291f7b9598fa1-element-103"/>
          <path fill="none" d="M88,7 L 88 174.46" id="fig-feebd5f10bc74428af4291f7b9598fa1-element-104"/>
          <path fill="none" d="M104.59,7 L 104.59 174.46" id="fig-feebd5f10bc74428af4291f7b9598fa1-element-105"/>
        </g>
        <g class="plotpanel" id="fig-feebd5f10bc74428af4291f7b9598fa1-element-106">
          <g stroke-width="0.3" fill="#000000" fill-opacity="0.000" id="fig-feebd5f10bc74428af4291f7b9598fa1-element-107">
            <path fill="none" d="M32.22,117.97 L 32.89 117.97 33.56 117.97 34.23 117.97 34.9 117.97 35.57 117.97 36.24 117.97 36.91 117.97 37.58 117.97 38.25 117.97 38.92 117.97 39.59 117.97 40.26 117.97 40.93 117.97 41.6 117.97 42.27 117.97 42.94 117.97 43.61 117.97 44.29 117.97 44.96 117.97 45.63 117.97 46.3 117.97 46.97 117.97 47.64 117.97 48.31 117.97 48.98 117.97 49.65 117.97 50.32 117.97 50.99 117.97 51.66 117.97 52.33 117.97 53 117.97 53.67 117.97 54.34 117.97 55.01 117.97 55.68 117.97 56.35 117.97 57.02 117.97 57.69 117.97 58.36 117.97 59.03 117.97 59.7 117.97 60.37 117.97 61.05 117.97 61.72 117.97 62.39 117.97 63.06 117.97 63.73 117.97 64.4 117.97 65.07 117.97 65.74 117.97 66.41 117.97 67.08 117.97 67.75 117.97 68.42 117.97 69.09 117.97 69.76 117.97 70.43 117.97 71.1 117.97 71.77 117.97 72.44 117.97 73.11 117.97 73.78 117.97 74.45 117.97 75.12 117.97 75.79 117.97 76.46 117.97 77.13 117.97 77.81 117.97 78.48 117.97 79.15 117.97 79.82 117.97 80.49 117.97 81.16 117.97 81.83 117.97 82.5 117.97 83.17 117.97 83.84 117.97 84.51 117.97 85.18 117.97 85.85 117.97 86.52 117.97 87.19 117.97 87.86 117.97 88.53 117.97 89.2 117.97 89.87 117.97 90.54 117.97 91.21 117.97 91.88 117.97 92.55 117.97 93.22 117.97 93.89 117.97 94.57 117.97 95.24 117.97 95.91 117.97 96.58 117.97 97.25 117.97 97.92 117.97 98.59 117.97" id="fig-feebd5f10bc74428af4291f7b9598fa1-element-108" class="geometry color_1" stroke="#00BFFF"/>
            <path fill="none" d="M32.22,117.97 L 32.89 117.97 33.56 117.97 34.23 117.97 34.9 117.97 35.57 117.97 36.24 117.97 36.91 117.97 37.58 117.97 38.25 117.97 38.92 117.97 39.59 117.97 40.26 117.97 40.93 117.97 41.6 117.97 42.27 117.97 42.94 117.97 43.61 117.97 44.29 117.97 44.96 117.97 45.63 117.97 46.3 117.97 46.97 117.97 47.64 117.97 48.31 117.97 48.98 117.97 49.65 117.97 50.32 117.97 50.99 117.97 51.66 117.97 52.33 117.97 53 117.97 53.67 117.97 54.34 117.97 55.01 117.97 55.68 117.97 56.35 117.97 57.02 117.97 57.69 117.97 58.36 117.97 59.03 117.97 59.7 117.97 60.37 117.97 61.05 117.97 61.72 117.97 62.39 117.97 63.06 117.97 63.73 117.97 64.4 117.97 65.07 117.97 65.74 117.97 66.41 117.97 67.08 117.97 67.75 117.97 68.42 117.97 69.09 117.97 69.76 117.97 70.43 117.97 71.1 117.97 71.77 117.97 72.44 117.97 73.11 117.97 73.78 117.97 74.45 117.97 75.12 117.97 75.79 117.97 76.46 117.97 77.13 117.97 77.81 117.97 78.48 117.97 79.15 117.97 79.82 117.97 80.49 117.97 81.16 117.97 81.83 117.97 82.5 117.97 83.17 117.97 83.84 117.97 84.51 117.97 85.18 117.97 85.85 117.97 86.52 117.97 87.19 117.97 87.86 117.97 88.53 117.97 89.2 117.97 89.87 117.97 90.54 117.97 91.21 117.97 91.88 117.97 92.55 117.97 93.22 117.97 93.89 117.97 94.57 117.97 95.24 117.97 95.91 117.97 96.58 117.97 97.25 117.97 97.92 117.97 98.59 117.97" id="fig-feebd5f10bc74428af4291f7b9598fa1-element-109" class="geometry color_4" stroke="#00E5B2"/>
            <path fill="none" d="M32.22,108.2 L 32.89 108.26 33.56 108.32 34.23 108.38 34.9 108.45 35.57 108.51 36.24 108.58 36.91 108.65 37.58 108.72 38.25 108.78 38.92 108.85 39.59 108.91 40.26 108.97 40.93 109.04 41.6 109.1 42.27 109.16 42.94 109.23 43.61 109.29 44.29 109.37 44.96 109.44 45.63 109.68 46.3 109.97 46.97 110.23 47.64 110.49 48.31 110.74 48.98 110.99 49.65 111.21 50.32 111.42 50.99 111.62 51.66 111.81 52.33 112 53 112.18 53.67 112.35 54.34 112.52 55.01 112.68 55.68 112.84 56.35 112.99 57.02 113.14 57.69 113.28 58.36 113.42 59.03 113.56 59.7 113.69 60.37 113.82 61.05 113.95 61.72 114.07 62.39 114.19 63.06 114.31 63.73 114.43 64.4 114.55 65.07 114.67 65.74 114.78 66.41 114.89 67.08 115.01 67.75 115.12 68.42 115.23 69.09 115.34 69.76 115.45 70.43 115.56 71.1 115.67 71.77 115.78 72.44 115.89 73.11 115.94 73.78 115.99 74.45 116.03 75.12 116.08 75.79 116.13 76.46 116.18 77.13 116.23 77.81 116.29 78.48 116.48 79.15 116.7 79.82 116.92 80.49 117.13 81.16 117.34 81.83 117.53 82.5 117.71 83.17 117.85 83.84 117.97 84.51 117.97 85.18 117.97 85.85 117.97 86.52 117.97 87.19 117.97 87.86 117.97 88.53 117.97 89.2 117.97 89.87 117.97 90.54 117.97 91.21 117.97 91.88 117.97 92.55 117.97 93.22 117.97 93.89 117.97 94.57 117.97 95.24 117.97 95.91 117.97 96.58 117.97 97.25 117.97 97.92 117.97 98.59 117.97" id="fig-feebd5f10bc74428af4291f7b9598fa1-element-110" class="geometry color_2" stroke="#D4CA3A"/>
            <path fill="none" d="M32.22,123.32 L 32.89 123.23 33.56 123.14 34.23 123.05 34.9 122.96 35.57 122.86 36.24 122.77 36.91 122.69 37.58 122.59 38.25 122.5 38.92 122.41 39.59 122.32 40.26 122.23 40.93 122.15 41.6 122.06 42.27 121.97 42.94 121.88 43.61 121.8 44.29 121.72 44.96 121.63 45.63 121.6 46.3 121.58 46.97 121.56 47.64 121.54 48.31 121.52 48.98 121.51 49.65 121.48 50.32 121.46 50.99 121.43 51.66 121.4 52.33 121.37 53 121.34 53.67 121.31 54.34 121.28 55.01 121.24 55.68 121.21 56.35 121.18 57.02 121.15 57.69 121.11 58.36 121.08 59.03 121.05 59.7 121.01 60.37 120.98 61.05 120.94 61.72 120.91 62.39 120.88 63.06 120.84 63.73 120.81 64.4 120.78 65.07 120.74 65.74 120.71 66.41 120.68 67.08 120.65 67.75 120.62 68.42 120.59 69.09 120.56 69.76 120.53 70.43 120.51 71.1 120.48 71.77 120.45 72.44 120.43 73.11 120.36 73.78 120.29 74.45 120.21 75.12 120.13 75.79 120.06 76.46 119.98 77.13 119.9 77.81 119.83 78.48 119.75 79.15 119.68 79.82 119.6 80.49 119.52 81.16 119.45 81.83 119.38 82.5 119.31 83.17 119.25 83.84 119.19 84.51 119.12 85.18 119.05 85.85 118.99 86.52 118.94 87.19 118.89 87.86 118.84 88.53 118.79 89.2 118.74 89.87 118.7 90.54 118.66 91.21 118.62 91.88 118.58 92.55 118.55 93.22 118.51 93.89 118.45 94.57 118.4 95.24 118.35 95.91 118.29 96.58 118.24 97.25 118.17 97.92 118.08 98.59 117.97" id="fig-feebd5f10bc74428af4291f7b9598fa1-element-111" class="geometry color_3" stroke="#FF5EA0"/>
          </g>
        </g>
      </g>
      <g class="guide ylabels" font-size="2.82" font-family="'PT Sans Caption','Helvetica Neue','Helvetica',sans-serif" fill="#6C606B" id="fig-feebd5f10bc74428af4291f7b9598fa1-element-112">
        <text x="18.63" y="172.46" text-anchor="end" dy="0.35em" id="fig-feebd5f10bc74428af4291f7b9598fa1-element-113">-50</text>
        <text x="18.63" y="117.97" text-anchor="end" dy="0.35em" id="fig-feebd5f10bc74428af4291f7b9598fa1-element-114">0</text>
        <text x="18.63" y="63.49" text-anchor="end" dy="0.35em" id="fig-feebd5f10bc74428af4291f7b9598fa1-element-115">50</text>
        <text x="18.63" y="9" text-anchor="end" dy="0.35em" id="fig-feebd5f10bc74428af4291f7b9598fa1-element-116">100</text>
      </g>
    </g>
  </g>
  <g font-size="3.88" font-family="'PT Sans','Helvetica Neue','Helvetica',sans-serif" fill="#564A55" stroke="#000000" stroke-opacity="0.000" id="fig-feebd5f10bc74428af4291f7b9598fa1-element-117">
    <text x="8.81" y="94.79" text-anchor="middle" dy="0.35em" transform="rotate(-90, 8.81, 96.79)" id="fig-feebd5f10bc74428af4291f7b9598fa1-element-118">βᵢ</text>
  </g>
</g>
<defs>
<clipPath id="fig-feebd5f10bc74428af4291f7b9598fa1-element-47">
  <path d="M199.56,7 L 284.52 7 284.52 174.46 199.56 174.46" />
</clipPath
><clipPath id="fig-feebd5f10bc74428af4291f7b9598fa1-element-91">
  <path d="M19.63,7 L 106.59 7 106.59 174.46 19.63 174.46" />
</clipPath
><clipPath id="fig-feebd5f10bc74428af4291f7b9598fa1-element-69">
  <path d="M110.59,7 L 195.56 7 195.56 174.46 110.59 174.46" />
</clipPath
><clipPath id="fig-feebd5f10bc74428af4291f7b9598fa1-element-17">
  <path d="M12.61,5 L 286.52 5 286.52 188.59 12.61 188.59" />
</clipPath
></defs>
</svg>
